# xmcd
# 
# Track frame offsets:
#     150
#     20822
#     34037
#     54626
#     73091
#     94482
#     108080
#     121937
#     139191
#     155483
#     169774
#     192218
# 
# Disc length: 2834
# 
# Revision: 0
# Processed by: cddbd v1.5.2PL0 Copyright (c) Steve Scherf et al.
# Submitted via: fre:ac v1.0.31
# 
DISCID=a70b100c
DTITLE=De Temps Antan - Consolez-vous
DYEAR=2017
DGENRE=Folklore
TTITLE0=La veuve joyeuse
TTITLE1=Regret dans l'âme
TTITLE2=Consolez-vous
TTITLE3=Projet Rett - PAC
TTITLE4=La brune habillée en soie
TTITLE5=Affilons nos couteaux
TTITLE6=JC-JP
TTITLE7=Quand le jupon dépasse
TTITLE8=Anaë toujours
TTITLE9=Reconsolez-vous
TTITLE10=Reelopel
TTITLE11=Damdé
EXTD=JB Team
EXTT0=
EXTT1=
EXTT2=
EXTT3=
EXTT4=
EXTT5=
EXTT6=
EXTT7=
EXTT8=
EXTT9=
EXTT10=
EXTT11=
PLAYORDER=
